<?xml version="1.0" encoding="UTF-8" standalone="no"?>
<!-- Generator: Adobe Illustrator 22.1.0, SVG Export Plug-In . SVG Version: 6.00 Build 0)  -->

<svg
   xmlns:dc="http://purl.org/dc/elements/1.1/"
   xmlns:cc="http://creativecommons.org/ns#"
   xmlns:rdf="http://www.w3.org/1999/02/22-rdf-syntax-ns#"
   xmlns:svg="http://www.w3.org/2000/svg"
   xmlns="http://www.w3.org/2000/svg"
   xmlns:sodipodi="http://sodipodi.sourceforge.net/DTD/sodipodi-0.dtd"
   xmlns:inkscape="http://www.inkscape.org/namespaces/inkscape"
   version="1.1"
   id="Layer_1"
   x="0px"
   y="0px"
   viewBox="0 0 420 202"
   xml:space="preserve"
   inkscape:version="0.91 r13725"
   sodipodi:docname="singlephone.svg"
   width="420"
   height="202"><metadata
     id="metadata508"><rdf:RDF><cc:Work
         rdf:about=""><dc:format>image/svg+xml</dc:format><dc:type
           rdf:resource="http://purl.org/dc/dcmitype/StillImage" /><dc:title /></cc:Work></rdf:RDF></metadata><defs
     id="defs506"><linearGradient
       gradientTransform="matrix(0,1,-1,0,330.268,-114.1445)"
       y2="70.745598"
       x2="322.84479"
       y1="128.68069"
       x1="322.84479"
       gradientUnits="userSpaceOnUse"
       id="SVGID_8_"><stop
         id="stop433"
         style="stop-color:#8E8C8F"
         offset="0" /><stop
         id="stop435"
         style="stop-color:#241F23"
         offset="1.612900e-02" /><stop
         id="stop437"
         style="stop-color:#C8C5C8"
         offset="4.838710e-02" /><stop
         id="stop439"
         style="stop-color:#C8C5C8"
         offset="0.9409" /><stop
         id="stop441"
         style="stop-color:#241F23"
         offset="0.9731" /><stop
         id="stop443"
         style="stop-color:#8E8C8F"
         offset="1" /></linearGradient><linearGradient
       gradientTransform="matrix(0,1,-1,0,330.268,-114.1445)"
       y2="6.9956002"
       x2="322.84479"
       y1="36.369598"
       x1="322.84479"
       gradientUnits="userSpaceOnUse"
       id="SVGID_4_"><stop
         id="stop371"
         style="stop-color:#8E8C8F"
         offset="0" /><stop
         id="stop373"
         style="stop-color:#241F23"
         offset="3.763440e-02" /><stop
         id="stop375"
         style="stop-color:#C8C5C8"
         offset="7.526880e-02" /><stop
         id="stop377"
         style="stop-color:#C8C5C8"
         offset="0.9194" /><stop
         id="stop379"
         style="stop-color:#241F23"
         offset="0.9624" /><stop
         id="stop381"
         style="stop-color:#8E8C8F"
         offset="1" /></linearGradient><defs
       id="defs387"><filter
         id="Adobe_OpacityMaskFilter"
         filterUnits="userSpaceOnUse"
         x="295.70001"
         y="207.7"
         width="26.1"
         height="1"><feFlood
           result="back"
           id="feFlood390" /><feBlend
           in="SourceGraphic"
           in2="back"
           mode="normal"
           id="feBlend392" /></filter></defs><mask
       maskUnits="userSpaceOnUse"
       x="295.7"
       y="207.7"
       width="26.1"
       height="1"
       id="SVGID_5_"><g
         class="st13"
         id="g395"
         style="filter:url(#Adobe_OpacityMaskFilter)"><defs
           id="defs397"><filter
             id="Adobe_OpacityMaskFilter_1_"
             filterUnits="userSpaceOnUse"
             x="295.70001"
             y="207.7"
             width="26.1"
             height="1"><feFlood
               result="back"
               id="feFlood400" /><feBlend
               in="SourceGraphic"
               in2="back"
               mode="normal"
               id="feBlend402" /></filter></defs><mask
           maskUnits="userSpaceOnUse"
           x="295.7"
           y="207.7"
           width="26.1"
           height="1"
           id="mask404"><g
             class="st14"
             id="g406"
             style="filter:url(#Adobe_OpacityMaskFilter_1_)" /></mask><linearGradient
           id="SVGID_6_"
           gradientUnits="userSpaceOnUse"
           x1="322.36279"
           y1="34.597698"
           x2="322.36279"
           y2="8.5209999"
           gradientTransform="matrix(0,1,-1,0,330.268,-114.1445)"><stop
             offset="0"
             style="stop-color:#000000"
             id="stop409" /><stop
             offset="5.376340e-02"
             style="stop-color:#FFFFFF"
             id="stop411" /><stop
             offset="0.9462"
             style="stop-color:#FFFFFF"
             id="stop413" /><stop
             offset="1"
             style="stop-color:#000000"
             id="stop415" /></linearGradient><rect
           x="295.70001"
           y="207.7"
           class="st15"
           width="26.1"
           height="1"
           id="rect417"
           mask="url(#SVGID_5_)"
           style="fill:url(#SVGID_6_)" /></g></mask><linearGradient
       id="SVGID_7_"
       gradientUnits="userSpaceOnUse"
       x1="322.36279"
       y1="34.597698"
       x2="322.36279"
       y2="8.5209999"
       gradientTransform="matrix(0,1,-1,0,330.268,-114.1445)"><stop
         offset="0"
         style="stop-color:#8E8E90"
         id="stop420" /><stop
         offset="5.376340e-02"
         style="stop-color:#8E8E90"
         id="stop422" /><stop
         offset="0.9462"
         style="stop-color:#8E8E90"
         id="stop424" /><stop
         offset="1"
         style="stop-color:#8E8E90"
         id="stop426" /></linearGradient><defs
       id="defs449"><filter
         id="Adobe_OpacityMaskFilter_2_"
         filterUnits="userSpaceOnUse"
         x="203.39999"
         y="207.7"
         width="54.599998"
         height="1"><feFlood
           result="back"
           id="feFlood452" /><feBlend
           in="SourceGraphic"
           in2="back"
           mode="normal"
           id="feBlend454" /></filter></defs><mask
       maskUnits="userSpaceOnUse"
       x="203.4"
       y="207.7"
       width="54.6"
       height="1"
       id="SVGID_9_"><g
         class="st18"
         id="g457"
         style="filter:url(#Adobe_OpacityMaskFilter_2_)"><defs
           id="defs459"><filter
             id="Adobe_OpacityMaskFilter_3_"
             filterUnits="userSpaceOnUse"
             x="203.39999"
             y="207.7"
             width="54.599998"
             height="1"><feFlood
               result="back"
               id="feFlood462" /><feBlend
               in="SourceGraphic"
               in2="back"
               mode="normal"
               id="feBlend464" /></filter></defs><mask
           maskUnits="userSpaceOnUse"
           x="203.4"
           y="207.7"
           width="54.6"
           height="1"
           id="mask466"><g
             class="st19"
             id="g468"
             style="filter:url(#Adobe_OpacityMaskFilter_3_)" /></mask><linearGradient
           id="SVGID_10_"
           gradientUnits="userSpaceOnUse"
           x1="322.36279"
           y1="126.9092"
           x2="322.36279"
           y2="72.271004"
           gradientTransform="matrix(0,1,-1,0,330.268,-114.1445)"><stop
             offset="0"
             style="stop-color:#000000"
             id="stop471" /><stop
             offset="5.376340e-02"
             style="stop-color:#FFFFFF"
             id="stop473" /><stop
             offset="0.9462"
             style="stop-color:#FFFFFF"
             id="stop475" /><stop
             offset="1"
             style="stop-color:#000000"
             id="stop477" /></linearGradient><rect
           x="203.39999"
           y="207.7"
           class="st20"
           width="54.599998"
           height="1"
           id="rect479"
           mask="url(#SVGID_9_)"
           style="fill:url(#SVGID_10_)" /></g></mask><linearGradient
       id="SVGID_11_"
       gradientUnits="userSpaceOnUse"
       x1="322.36279"
       y1="126.9092"
       x2="322.36279"
       y2="72.271004"
       gradientTransform="matrix(0,1,-1,0,330.268,-114.1445)"><stop
         offset="0"
         style="stop-color:#8E8E90"
         id="stop482" /><stop
         offset="5.376340e-02"
         style="stop-color:#8E8E90"
         id="stop484" /><stop
         offset="0.9462"
         style="stop-color:#8E8E90"
         id="stop486" /><stop
         offset="1"
         style="stop-color:#8E8E90"
         id="stop488" /></linearGradient></defs><sodipodi:namedview
     pagecolor="#ffffff"
     bordercolor="#666666"
     borderopacity="1"
     objecttolerance="10"
     gridtolerance="10"
     guidetolerance="10"
     inkscape:pageopacity="0"
     inkscape:pageshadow="2"
     inkscape:window-width="2488"
     inkscape:window-height="1417"
     id="namedview504"
     showgrid="false"
     fit-margin-top="0"
     fit-margin-left="0"
     fit-margin-right="0"
     fit-margin-bottom="0"
     inkscape:zoom="3.6942722"
     inkscape:cx="201.17037"
     inkscape:cy="118.66389"
     inkscape:window-x="64"
     inkscape:window-y="-8"
     inkscape:window-maximized="1"
     inkscape:current-layer="g5" /><style
     type="text/css"
     id="style3">
	.st0{fill:#000002;}
	.st1{fill:url(#SVGID_1_);}
	.st2{fill:#7D7D7D;}
	.st3{fill:#2F2E31;}
	.st4{fill:#0B0E0D;}
	.st5{fill:#0D1623;}
	.st6{fill:#9FB2DB;}
	.st7{fill:#5A5A5A;}
	.st8{fill:url(#SVGID_2_);}
	.st9{fill:#384449;}
	.st10{fill:url(#SVGID_3_);}
	.st11{fill:#ADAFAF;}
	.st12{fill:url(#SVGID_4_);}
	.st13{filter:url(#Adobe_OpacityMaskFilter);}
	.st14{filter:url(#Adobe_OpacityMaskFilter_1_);}
	.st15{mask:url(#SVGID_5_);fill:url(#SVGID_6_);}
	.st16{fill:url(#SVGID_7_);}
	.st17{fill:url(#SVGID_8_);}
	.st18{filter:url(#Adobe_OpacityMaskFilter_2_);}
	.st19{filter:url(#Adobe_OpacityMaskFilter_3_);}
	.st20{mask:url(#SVGID_9_);fill:url(#SVGID_10_);}
	.st21{fill:url(#SVGID_11_);}
	.st22{fill:#898689;}
</style><g
     id="g5"
     transform="translate(-12.2,-7.6999998)"><g
       id="g7"><path
         style="fill:#000002"
         d="M 21 2 C 10.5 2 2 10.5 2 21 L 2 179 C 2 189.5 10.5 198 21 198 L 399.09961 198 C 409.59961 198 418.09961 189.5 418.09961 179 L 418.09961 21 C 418.09961 10.5 409.59961 2 399.09961 2 L 21 2 z M 50.699219 9 L 371.40039 9 L 371.40039 191.69922 L 50.699219 191.69922 L 50.699219 9 z "
         transform="translate(12.2,7.6999998)"
         id="path9" /><linearGradient
         id="SVGID_1_"
         gradientUnits="userSpaceOnUse"
         x1="221.87109"
         y1="314.18649"
         x2="221.87109"
         y2="293.16309"
         gradientTransform="matrix(0,1,-1,0,330.268,-114.1445)"><stop
           offset="0"
           style="stop-color:#2E2B2E"
           id="stop14" /><stop
           offset="1"
           style="stop-color:#000002"
           id="stop16" /></linearGradient><path
         class="st1"
         d="m 62.9,9.7 -29.7,0 c -10.5,0 -19,8.5 -19,19 l 0,158 c 0,10.5 8.5,19 19,19 l 29.7,0 0,-196 z"
         id="path18"
         inkscape:connector-curvature="0"
         style="fill:url(#SVGID_1_)" /><path
         class="st2"
         d="m 429.9,186.7 0,-158 C 429.9,18.4 421.5,10 411.2,10 l -378,0 C 22.9,10 14.5,18.4 14.5,28.7 l 0,158 c 0,10.3 8.4,18.7 18.7,18.7 l 378.1,0 c 10.3,0 18.6,-8.4 18.6,-18.7 z M 33.2,204.8 c -10,0 -18.1,-8.1 -18.1,-18.1 l 0,-158 c 0,-10 8.1,-18.1 18.1,-18.1 l 378.1,0 c 10,0 18.1,8.1 18.1,18.1 l 0,158 c 0,10 -8.1,18.1 -18.1,18.1 l -378.1,0 z"
         id="path20"
         inkscape:connector-curvature="0"
         style="fill:#7d7d7d" /><circle
         class="st3"
         cx="407.10001"
         cy="42.900002"
         r="4.4000001"
         id="circle22"
         style="fill:#2f2e31" /><circle
         class="st4"
         cx="407.10001"
         cy="42.900002"
         r="2.7"
         id="circle24"
         style="fill:#0b0e0d" /><path
         class="st5"
         d="m 407.1,45.2 c -1.2,0 -2.3,-1 -2.3,-2.3 0,-1.2 1,-2.3 2.3,-2.3 1.2,0 2.3,1 2.3,2.3 -0.1,1.3 -1.1,2.3 -2.3,2.3 z"
         id="path26"
         inkscape:connector-curvature="0"
         style="fill:#0d1623" /><circle
         class="st6"
         cx="407.5"
         cy="42.400002"
         r="0.5"
         id="circle28"
         style="fill:#9fb2db" /><path
         class="st6"
         d="m 406.4,45.1 c 0.5,-0.2 0.9,-0.7 0.9,-1.3 0,-0.8 -0.6,-1.4 -1.4,-1.4 -0.5,0 -0.9,0.2 -1.1,0.6 0,1 0.7,1.8 1.6,2.1 z"
         id="path30"
         inkscape:connector-curvature="0"
         style="fill:#9fb2db" /><path
         class="st3"
         d="m 410,144.6 0,-72.4 c 0,-1.2 -1,-2.2 -2.2,-2.2 -1.2,0 -2.2,1 -2.2,2.2 l 0,72.4 c 0,1.2 1,2.2 2.2,2.2 1.2,0 2.2,-1 2.2,-2.2 z m -3.8,0 0,-72.4 c 0,-0.9 0.7,-1.6 1.6,-1.6 0.9,0 1.6,0.7 1.6,1.6 l 0,72.4 c 0,0.9 -0.7,1.6 -1.6,1.6 -0.9,0 -1.6,-0.7 -1.6,-1.6 z"
         id="path32"
         inkscape:connector-curvature="0"
         style="fill:#2f2e31" /><rect
         style="fill:#5a5a5a"
         id="rect36"
         height="0.2"
         width="2.5"
         class="st7"
         y="72.400002"
         x="406.5" /><rect
         style="fill:#5a5a5a"
         id="rect38"
         height="0.2"
         width="1.7"
         class="st7"
         y="71.599998"
         x="406.89999" /><rect
         style="fill:#5a5a5a"
         id="rect40"
         height="0.2"
         width="1.7"
         class="st7"
         y="145.10001"
         x="406.89999" /><rect
         style="fill:#5a5a5a"
         id="rect42"
         height="0.2"
         width="2.5"
         class="st7"
         y="73.199997"
         x="406.5" /><rect
         style="fill:#5a5a5a"
         id="rect44"
         height="0.2"
         width="2.5"
         class="st7"
         y="74"
         x="406.5" /><rect
         style="fill:#5a5a5a"
         id="rect46"
         height="0.2"
         width="2.5"
         class="st7"
         y="74.900002"
         x="406.5" /><rect
         style="fill:#5a5a5a"
         id="rect48"
         height="0.2"
         width="2.5"
         class="st7"
         y="75.699997"
         x="406.5" /><rect
         style="fill:#5a5a5a"
         id="rect50"
         height="0.2"
         width="2.5"
         class="st7"
         y="76.5"
         x="406.5" /><rect
         style="fill:#5a5a5a"
         id="rect52"
         height="0.2"
         width="2.5"
         class="st7"
         y="77.300003"
         x="406.5" /><rect
         style="fill:#5a5a5a"
         id="rect54"
         height="0.2"
         width="2.5"
         class="st7"
         y="78.099998"
         x="406.5" /><rect
         style="fill:#5a5a5a"
         id="rect56"
         height="0.2"
         width="2.5"
         class="st7"
         y="78.900002"
         x="406.5" /><rect
         style="fill:#5a5a5a"
         id="rect58"
         height="0.2"
         width="2.5"
         class="st7"
         y="79.699997"
         x="406.5" /><rect
         style="fill:#5a5a5a"
         id="rect60"
         height="0.2"
         width="2.5"
         class="st7"
         y="80.5"
         x="406.5" /><rect
         style="fill:#5a5a5a"
         id="rect62"
         height="0.2"
         width="2.5"
         class="st7"
         y="81.300003"
         x="406.5" /><rect
         style="fill:#5a5a5a"
         id="rect64"
         height="0.2"
         width="2.5"
         class="st7"
         y="82.099998"
         x="406.5" /><rect
         style="fill:#5a5a5a"
         id="rect66"
         height="0.2"
         width="2.5"
         class="st7"
         y="82.900002"
         x="406.5" /><rect
         style="fill:#5a5a5a"
         id="rect68"
         height="0.2"
         width="2.5"
         class="st7"
         y="83.699997"
         x="406.5" /><rect
         style="fill:#5a5a5a"
         id="rect70"
         height="0.2"
         width="2.5"
         class="st7"
         y="84.5"
         x="406.5" /><rect
         style="fill:#5a5a5a"
         id="rect72"
         height="0.2"
         width="2.5"
         class="st7"
         y="85.300003"
         x="406.5" /><rect
         style="fill:#5a5a5a"
         id="rect74"
         height="0.2"
         width="2.5"
         class="st7"
         y="86.099998"
         x="406.5" /><rect
         style="fill:#5a5a5a"
         id="rect76"
         height="0.2"
         width="2.5"
         class="st7"
         y="86.900002"
         x="406.5" /><rect
         style="fill:#5a5a5a"
         id="rect78"
         height="0.2"
         width="2.5"
         class="st7"
         y="87.800003"
         x="406.5" /><rect
         style="fill:#5a5a5a"
         id="rect80"
         height="0.2"
         width="2.5"
         class="st7"
         y="88.599998"
         x="406.5" /><rect
         style="fill:#5a5a5a"
         id="rect82"
         height="0.2"
         width="2.5"
         class="st7"
         y="89.400002"
         x="406.5" /><rect
         style="fill:#5a5a5a"
         id="rect84"
         height="0.2"
         width="2.5"
         class="st7"
         y="90.199997"
         x="406.5" /><rect
         style="fill:#5a5a5a"
         id="rect86"
         height="0.2"
         width="2.5"
         class="st7"
         y="91"
         x="406.5" /><rect
         style="fill:#5a5a5a"
         id="rect88"
         height="0.2"
         width="2.5"
         class="st7"
         y="91.800003"
         x="406.5" /><rect
         style="fill:#5a5a5a"
         id="rect90"
         height="0.2"
         width="2.5"
         class="st7"
         y="92.599998"
         x="406.5" /><rect
         style="fill:#5a5a5a"
         id="rect92"
         height="0.2"
         width="2.5"
         class="st7"
         y="93.400002"
         x="406.5" /><rect
         style="fill:#5a5a5a"
         id="rect94"
         height="0.2"
         width="2.5"
         class="st7"
         y="94.199997"
         x="406.5" /><rect
         style="fill:#5a5a5a"
         id="rect96"
         height="0.2"
         width="2.5"
         class="st7"
         y="95"
         x="406.5" /><rect
         style="fill:#5a5a5a"
         id="rect98"
         height="0.2"
         width="2.5"
         class="st7"
         y="95.800003"
         x="406.5" /><rect
         style="fill:#5a5a5a"
         id="rect100"
         height="0.2"
         width="2.5"
         class="st7"
         y="96.599998"
         x="406.5" /><rect
         style="fill:#5a5a5a"
         id="rect102"
         height="0.2"
         width="2.5"
         class="st7"
         y="97.400002"
         x="406.5" /><rect
         style="fill:#5a5a5a"
         id="rect104"
         height="0.2"
         width="2.5"
         class="st7"
         y="98.199997"
         x="406.5" /><rect
         style="fill:#5a5a5a"
         id="rect106"
         height="0.2"
         width="2.5"
         class="st7"
         y="99"
         x="406.5" /><rect
         style="fill:#5a5a5a"
         id="rect108"
         height="0.2"
         width="2.5"
         class="st7"
         y="99.800003"
         x="406.5" /><rect
         style="fill:#5a5a5a"
         id="rect110"
         height="0.2"
         width="2.5"
         class="st7"
         y="100.6"
         x="406.5" /><rect
         style="fill:#5a5a5a"
         id="rect112"
         height="0.2"
         width="2.5"
         class="st7"
         y="101.5"
         x="406.5" /><rect
         style="fill:#5a5a5a"
         id="rect114"
         height="0.2"
         width="2.5"
         class="st7"
         y="102.3"
         x="406.5" /><rect
         style="fill:#5a5a5a"
         id="rect116"
         height="0.2"
         width="2.5"
         class="st7"
         y="103.1"
         x="406.5" /><rect
         style="fill:#5a5a5a"
         id="rect118"
         height="0.2"
         width="2.5"
         class="st7"
         y="103.9"
         x="406.5" /><rect
         style="fill:#5a5a5a"
         id="rect120"
         height="0.2"
         width="2.5"
         class="st7"
         y="104.7"
         x="406.5" /><rect
         style="fill:#5a5a5a"
         id="rect122"
         height="0.2"
         width="2.5"
         class="st7"
         y="105.5"
         x="406.5" /><rect
         style="fill:#5a5a5a"
         id="rect124"
         height="0.2"
         width="2.5"
         class="st7"
         y="106.3"
         x="406.5" /><rect
         style="fill:#5a5a5a"
         id="rect126"
         height="0.2"
         width="2.5"
         class="st7"
         y="107.1"
         x="406.5" /><rect
         style="fill:#5a5a5a"
         id="rect128"
         height="0.2"
         width="2.5"
         class="st7"
         y="107.9"
         x="406.5" /><rect
         style="fill:#5a5a5a"
         id="rect130"
         height="0.2"
         width="2.5"
         class="st7"
         y="108.7"
         x="406.5" /><rect
         style="fill:#5a5a5a"
         id="rect132"
         height="0.2"
         width="2.5"
         class="st7"
         y="109.5"
         x="406.5" /><rect
         style="fill:#5a5a5a"
         id="rect134"
         height="0.2"
         width="2.5"
         class="st7"
         y="110.3"
         x="406.5" /><rect
         style="fill:#5a5a5a"
         id="rect136"
         height="0.2"
         width="2.5"
         class="st7"
         y="111.1"
         x="406.5" /><rect
         style="fill:#5a5a5a"
         id="rect138"
         height="0.2"
         width="2.5"
         class="st7"
         y="111.9"
         x="406.5" /><rect
         style="fill:#5a5a5a"
         id="rect140"
         height="0.2"
         width="2.5"
         class="st7"
         y="112.7"
         x="406.5" /><rect
         style="fill:#5a5a5a"
         id="rect142"
         height="0.2"
         width="2.5"
         class="st7"
         y="113.5"
         x="406.5" /><rect
         style="fill:#5a5a5a"
         id="rect144"
         height="0.2"
         width="2.5"
         class="st7"
         y="114.4"
         x="406.5" /><rect
         style="fill:#5a5a5a"
         id="rect146"
         height="0.2"
         width="2.5"
         class="st7"
         y="115.2"
         x="406.5" /><rect
         style="fill:#5a5a5a"
         id="rect148"
         height="0.2"
         width="2.5"
         class="st7"
         y="116"
         x="406.5" /><rect
         style="fill:#5a5a5a"
         id="rect150"
         height="0.2"
         width="2.5"
         class="st7"
         y="116.8"
         x="406.5" /><rect
         style="fill:#5a5a5a"
         id="rect152"
         height="0.2"
         width="2.5"
         class="st7"
         y="117.6"
         x="406.5" /><rect
         style="fill:#5a5a5a"
         id="rect154"
         height="0.2"
         width="2.5"
         class="st7"
         y="118.4"
         x="406.5" /><rect
         style="fill:#5a5a5a"
         id="rect156"
         height="0.2"
         width="2.5"
         class="st7"
         y="119.2"
         x="406.5" /><rect
         style="fill:#5a5a5a"
         id="rect158"
         height="0.2"
         width="2.5"
         class="st7"
         y="120"
         x="406.5" /><rect
         style="fill:#5a5a5a"
         id="rect160"
         height="0.2"
         width="2.5"
         class="st7"
         y="120.8"
         x="406.5" /><rect
         style="fill:#5a5a5a"
         id="rect162"
         height="0.2"
         width="2.5"
         class="st7"
         y="121.6"
         x="406.5" /><rect
         style="fill:#5a5a5a"
         id="rect164"
         height="0.2"
         width="2.5"
         class="st7"
         y="122.4"
         x="406.5" /><rect
         style="fill:#5a5a5a"
         id="rect166"
         height="0.2"
         width="2.5"
         class="st7"
         y="123.2"
         x="406.5" /><rect
         style="fill:#5a5a5a"
         id="rect168"
         height="0.2"
         width="2.5"
         class="st7"
         y="124"
         x="406.5" /><rect
         style="fill:#5a5a5a"
         id="rect170"
         height="0.2"
         width="2.5"
         class="st7"
         y="124.8"
         x="406.5" /><rect
         style="fill:#5a5a5a"
         id="rect172"
         height="0.2"
         width="2.5"
         class="st7"
         y="125.6"
         x="406.5" /><rect
         style="fill:#5a5a5a"
         id="rect174"
         height="0.2"
         width="2.5"
         class="st7"
         y="126.4"
         x="406.5" /><rect
         style="fill:#5a5a5a"
         id="rect176"
         height="0.2"
         width="2.5"
         class="st7"
         y="127.3"
         x="406.5" /><rect
         style="fill:#5a5a5a"
         id="rect178"
         height="0.2"
         width="2.5"
         class="st7"
         y="128.10001"
         x="406.5" /><rect
         style="fill:#5a5a5a"
         id="rect180"
         height="0.2"
         width="2.5"
         class="st7"
         y="128.89999"
         x="406.5" /><rect
         style="fill:#5a5a5a"
         id="rect182"
         height="0.2"
         width="2.5"
         class="st7"
         y="129.7"
         x="406.5" /><rect
         style="fill:#5a5a5a"
         id="rect184"
         height="0.2"
         width="2.5"
         class="st7"
         y="130.5"
         x="406.5" /><rect
         style="fill:#5a5a5a"
         id="rect186"
         height="0.2"
         width="2.5"
         class="st7"
         y="131.3"
         x="406.5" /><rect
         style="fill:#5a5a5a"
         id="rect188"
         height="0.2"
         width="2.5"
         class="st7"
         y="132.10001"
         x="406.5" /><rect
         style="fill:#5a5a5a"
         id="rect190"
         height="0.2"
         width="2.5"
         class="st7"
         y="132.89999"
         x="406.5" /><rect
         style="fill:#5a5a5a"
         id="rect192"
         height="0.2"
         width="2.5"
         class="st7"
         y="133.7"
         x="406.5" /><rect
         style="fill:#5a5a5a"
         id="rect194"
         height="0.2"
         width="2.5"
         class="st7"
         y="134.5"
         x="406.5" /><rect
         style="fill:#5a5a5a"
         id="rect196"
         height="0.2"
         width="2.5"
         class="st7"
         y="135.3"
         x="406.5" /><rect
         style="fill:#5a5a5a"
         id="rect198"
         height="0.2"
         width="2.5"
         class="st7"
         y="136.10001"
         x="406.5" /><rect
         style="fill:#5a5a5a"
         id="rect200"
         height="0.2"
         width="2.5"
         class="st7"
         y="136.89999"
         x="406.5" /><rect
         style="fill:#5a5a5a"
         id="rect202"
         height="0.2"
         width="2.5"
         class="st7"
         y="137.7"
         x="406.5" /><rect
         style="fill:#5a5a5a"
         id="rect204"
         height="0.2"
         width="2.5"
         class="st7"
         y="138.5"
         x="406.5" /><rect
         style="fill:#5a5a5a"
         id="rect206"
         height="0.2"
         width="2.5"
         class="st7"
         y="139.3"
         x="406.5" /><rect
         style="fill:#5a5a5a"
         id="rect208"
         height="0.2"
         width="2.5"
         class="st7"
         y="140.2"
         x="406.5" /><rect
         style="fill:#5a5a5a"
         id="rect210"
         height="0.2"
         width="2.5"
         class="st7"
         y="141"
         x="406.5" /><rect
         style="fill:#5a5a5a"
         id="rect212"
         height="0.2"
         width="2.5"
         class="st7"
         y="141.8"
         x="406.5" /><rect
         style="fill:#5a5a5a"
         id="rect214"
         height="0.2"
         width="2.5"
         class="st7"
         y="142.60001"
         x="406.5" /><rect
         style="fill:#5a5a5a"
         id="rect216"
         height="0.2"
         width="2.5"
         class="st7"
         y="143.39999"
         x="406.5" /><rect
         style="fill:#5a5a5a"
         id="rect218"
         height="0.2"
         width="2.5"
         class="st7"
         y="144.2"
         x="406.5" /><linearGradient
         id="SVGID_2_"
         gradientUnits="userSpaceOnUse"
         x1="221.2146"
         y1="297.35449"
         x2="221.2146"
         y2="292.43851"
         gradientTransform="matrix(0,1,-1,0,330.268,-114.1445)"><stop
           offset="0"
           style="stop-color:#545253"
           id="stop221" /><stop
           offset="1"
           style="stop-color:#333031"
           id="stop223" /></linearGradient><path
         class="st8"
         d="m 37.8,142.9 0,-71.7 c 0,-1.4 -1.1,-2.5 -2.5,-2.5 -1.4,0 -2.5,1.1 -2.5,2.5 l 0,71.8 c 0,1.4 1.1,2.5 2.5,2.5 1.4,0 2.5,-1.2 2.5,-2.6 z m -4.3,0 0,-71.7 c 0,-1 0.8,-1.9 1.9,-1.9 1,0 1.9,0.8 1.9,1.9 l 0,71.8 c 0,1 -0.8,1.9 -1.9,1.9 -1.1,-0.1 -1.9,-0.9 -1.9,-2 z"
         id="path225"
         inkscape:connector-curvature="0"
         style="fill:url(#SVGID_2_)" /><rect
         style="fill:#5a5a5a"
         id="rect229"
         height="0.40000001"
         width="2.8"
         class="st7"
         y="70.900002"
         x="34" /><rect
         style="fill:#5a5a5a"
         id="rect231"
         height="0.40000001"
         width="2.8"
         class="st7"
         y="72.199997"
         x="34" /><rect
         style="fill:#5a5a5a"
         id="rect233"
         height="0.40000001"
         width="2.8"
         class="st7"
         y="73.400002"
         x="34" /><rect
         style="fill:#5a5a5a"
         id="rect235"
         height="0.40000001"
         width="2.8"
         class="st7"
         y="74.599998"
         x="34" /><rect
         style="fill:#5a5a5a"
         id="rect237"
         height="0.40000001"
         width="2.8"
         class="st7"
         y="75.800003"
         x="34" /><rect
         style="fill:#5a5a5a"
         id="rect239"
         height="0.40000001"
         width="2.8"
         class="st7"
         y="77"
         x="34" /><rect
         style="fill:#5a5a5a"
         id="rect241"
         height="0.40000001"
         width="2.8"
         class="st7"
         y="78.300003"
         x="34" /><rect
         style="fill:#5a5a5a"
         id="rect243"
         height="0.40000001"
         width="2.8"
         class="st7"
         y="79.5"
         x="34" /><rect
         style="fill:#5a5a5a"
         id="rect245"
         height="0.40000001"
         width="2.8"
         class="st7"
         y="80.699997"
         x="34" /><rect
         style="fill:#5a5a5a"
         id="rect247"
         height="0.40000001"
         width="2.8"
         class="st7"
         y="81.900002"
         x="34" /><rect
         style="fill:#5a5a5a"
         id="rect249"
         height="0.40000001"
         width="2.8"
         class="st7"
         y="83.099998"
         x="34" /><rect
         style="fill:#5a5a5a"
         id="rect251"
         height="0.40000001"
         width="2.8"
         class="st7"
         y="84.300003"
         x="34" /><rect
         style="fill:#5a5a5a"
         id="rect253"
         height="0.40000001"
         width="2.8"
         class="st7"
         y="85.599998"
         x="34" /><rect
         style="fill:#5a5a5a"
         id="rect255"
         height="0.40000001"
         width="2.8"
         class="st7"
         y="86.800003"
         x="34" /><rect
         style="fill:#5a5a5a"
         id="rect257"
         height="0.40000001"
         width="2.8"
         class="st7"
         y="88"
         x="34" /><rect
         style="fill:#5a5a5a"
         id="rect259"
         height="0.40000001"
         width="2.8"
         class="st7"
         y="89.199997"
         x="34" /><rect
         style="fill:#5a5a5a"
         id="rect261"
         height="0.40000001"
         width="2.8"
         class="st7"
         y="90.400002"
         x="34" /><rect
         style="fill:#5a5a5a"
         id="rect263"
         height="0.40000001"
         width="2.8"
         class="st7"
         y="91.599998"
         x="34" /><rect
         style="fill:#5a5a5a"
         id="rect265"
         height="0.40000001"
         width="2.8"
         class="st7"
         y="92.900002"
         x="34" /><rect
         style="fill:#5a5a5a"
         id="rect267"
         height="0.40000001"
         width="2.8"
         class="st7"
         y="94.099998"
         x="34" /><rect
         style="fill:#5a5a5a"
         id="rect269"
         height="0.40000001"
         width="2.8"
         class="st7"
         y="95.300003"
         x="34" /><rect
         style="fill:#5a5a5a"
         id="rect271"
         height="0.40000001"
         width="2.8"
         class="st7"
         y="96.5"
         x="34" /><rect
         style="fill:#5a5a5a"
         id="rect273"
         height="0.40000001"
         width="2.8"
         class="st7"
         y="97.699997"
         x="34" /><rect
         style="fill:#5a5a5a"
         id="rect275"
         height="0.40000001"
         width="2.8"
         class="st7"
         y="98.900002"
         x="34" /><rect
         style="fill:#5a5a5a"
         id="rect277"
         height="0.40000001"
         width="2.8"
         class="st7"
         y="100.2"
         x="34" /><rect
         style="fill:#5a5a5a"
         id="rect279"
         height="0.40000001"
         width="2.8"
         class="st7"
         y="101.4"
         x="34" /><rect
         style="fill:#5a5a5a"
         id="rect281"
         height="0.40000001"
         width="2.8"
         class="st7"
         y="102.6"
         x="34" /><rect
         style="fill:#5a5a5a"
         id="rect283"
         height="0.40000001"
         width="2.8"
         class="st7"
         y="103.8"
         x="34" /><rect
         style="fill:#5a5a5a"
         id="rect285"
         height="0.40000001"
         width="2.8"
         class="st7"
         y="105"
         x="34" /><rect
         style="fill:#5a5a5a"
         id="rect287"
         height="0.40000001"
         width="2.8"
         class="st7"
         y="106.2"
         x="34" /><rect
         style="fill:#5a5a5a"
         id="rect289"
         height="0.40000001"
         width="2.8"
         class="st7"
         y="107.5"
         x="34" /><rect
         style="fill:#5a5a5a"
         id="rect291"
         height="0.40000001"
         width="2.8"
         class="st7"
         y="108.7"
         x="34" /><rect
         style="fill:#5a5a5a"
         id="rect293"
         height="0.40000001"
         width="2.8"
         class="st7"
         y="109.9"
         x="34" /><rect
         style="fill:#5a5a5a"
         id="rect295"
         height="0.40000001"
         width="2.8"
         class="st7"
         y="111.1"
         x="34" /><rect
         style="fill:#5a5a5a"
         id="rect297"
         height="0.40000001"
         width="2.8"
         class="st7"
         y="112.3"
         x="34" /><rect
         style="fill:#5a5a5a"
         id="rect299"
         height="0.40000001"
         width="2.8"
         class="st7"
         y="113.6"
         x="34" /><rect
         style="fill:#5a5a5a"
         id="rect301"
         height="0.40000001"
         width="2.8"
         class="st7"
         y="114.8"
         x="34" /><rect
         style="fill:#5a5a5a"
         id="rect303"
         height="0.40000001"
         width="2.8"
         class="st7"
         y="116"
         x="34" /><rect
         style="fill:#5a5a5a"
         id="rect305"
         height="0.40000001"
         width="2.8"
         class="st7"
         y="117.2"
         x="34" /><rect
         style="fill:#5a5a5a"
         id="rect307"
         height="0.40000001"
         width="2.8"
         class="st7"
         y="118.4"
         x="34" /><rect
         style="fill:#5a5a5a"
         id="rect309"
         height="0.40000001"
         width="2.8"
         class="st7"
         y="119.6"
         x="34" /><rect
         style="fill:#5a5a5a"
         id="rect311"
         height="0.40000001"
         width="2.8"
         class="st7"
         y="120.9"
         x="34" /><rect
         style="fill:#5a5a5a"
         id="rect313"
         height="0.40000001"
         width="2.8"
         class="st7"
         y="122.1"
         x="34" /><rect
         style="fill:#5a5a5a"
         id="rect315"
         height="0.40000001"
         width="2.8"
         class="st7"
         y="123.3"
         x="34" /><rect
         style="fill:#5a5a5a"
         id="rect317"
         height="0.40000001"
         width="2.8"
         class="st7"
         y="124.5"
         x="34" /><rect
         style="fill:#5a5a5a"
         id="rect319"
         height="0.40000001"
         width="2.8"
         class="st7"
         y="125.7"
         x="34" /><rect
         style="fill:#5a5a5a"
         id="rect321"
         height="0.40000001"
         width="2.8"
         class="st7"
         y="126.9"
         x="34" /><rect
         style="fill:#5a5a5a"
         id="rect323"
         height="0.40000001"
         width="2.8"
         class="st7"
         y="128.2"
         x="34" /><rect
         style="fill:#5a5a5a"
         id="rect325"
         height="0.40000001"
         width="2.8"
         class="st7"
         y="129.39999"
         x="34" /><rect
         style="fill:#5a5a5a"
         id="rect327"
         height="0.40000001"
         width="2.8"
         class="st7"
         y="130.60001"
         x="34" /><rect
         style="fill:#5a5a5a"
         id="rect329"
         height="0.40000001"
         width="2.8"
         class="st7"
         y="131.8"
         x="34" /><rect
         style="fill:#5a5a5a"
         id="rect331"
         height="0.40000001"
         width="2.8"
         class="st7"
         y="133"
         x="34" /><rect
         style="fill:#5a5a5a"
         id="rect333"
         height="0.40000001"
         width="2.8"
         class="st7"
         y="134.2"
         x="34" /><rect
         style="fill:#5a5a5a"
         id="rect335"
         height="0.40000001"
         width="2.8"
         class="st7"
         y="135.5"
         x="34" /><rect
         style="fill:#5a5a5a"
         id="rect337"
         height="0.40000001"
         width="2.8"
         class="st7"
         y="136.7"
         x="34" /><rect
         style="fill:#5a5a5a"
         id="rect339"
         height="0.40000001"
         width="2.8"
         class="st7"
         y="137.89999"
         x="34" /><rect
         style="fill:#5a5a5a"
         id="rect341"
         height="0.40000001"
         width="2.8"
         class="st7"
         y="139.10001"
         x="34" /><rect
         style="fill:#5a5a5a"
         id="rect343"
         height="0.40000001"
         width="2.8"
         class="st7"
         y="140.3"
         x="34" /><rect
         style="fill:#5a5a5a"
         id="rect345"
         height="0.40000001"
         width="2.8"
         class="st7"
         y="141.60001"
         x="34" /><rect
         style="fill:#5a5a5a"
         id="rect347"
         height="0.40000001"
         width="2.8"
         class="st7"
         y="142.8"
         x="34" /><linearGradient
         id="SVGID_3_"
         gradientUnits="userSpaceOnUse"
         x1="121.8613"
         y1="108.0618"
         x2="321.88089"
         y2="108.0618"
         gradientTransform="matrix(0,1,-1,0,330.268,-114.1445)"><stop
           offset="0"
           style="stop-color:#8E8C8F"
           id="stop352" /><stop
           offset="1.612900e-02"
           style="stop-color:#241F23"
           id="stop354" /><stop
           offset="4.838710e-02"
           style="stop-color:#C8C5C8"
           id="stop356" /><stop
           offset="0.9409"
           style="stop-color:#C8C5C8"
           id="stop358" /><stop
           offset="0.9731"
           style="stop-color:#241F23"
           id="stop360" /><stop
           offset="1"
           style="stop-color:#8E8C8F"
           id="stop362" /></linearGradient><path
         class="st10"
         d="m 432.2,186.7 0,-158 c 0,-11.6 -9.4,-21 -21,-21 l -378,0 c -11.6,0 -21,9.4 -21,21 l 0,158 c 0,11.6 9.4,21 21,21 l 378.1,0 c 11.5,0 20.9,-9.4 20.9,-21 z m -399,19 c -10.5,0 -19,-8.5 -19,-19 l 0,-158 c 0,-10.5 8.5,-19 19,-19 l 378.1,0 c 10.5,0 19,8.5 19,19 l 0,158 c 0,10.5 -8.5,19 -19,19 l -378.1,0 z"
         id="path364"
         inkscape:connector-curvature="0"
         style="fill:url(#SVGID_3_)" /><path
         class="st11"
         d="m 427,27 0,162.8 c 0,3 -1.2,5.7 -3,7.5 2.5,-1.6 4.2,-4.8 4.2,-8.4 l 0,-161 c 0,-3.6 -1.7,-6.8 -4.2,-8.4 1.8,1.8 3,4.5 3,7.5 z"
         id="path366"
         inkscape:connector-curvature="0"
         style="fill:#adafaf" /><path
         style="fill:url(#SVGID_4_)"
         inkscape:connector-curvature="0"
         id="path383"
         d="m 295.8,209.7 c -1.1,0 -1.9,-0.9 -1.9,-1.9 l 0,0 c 3.6,0 26.3,0 29.4,0 l 0,0 c 0,1.1 -0.9,1.9 -1.9,1.9 l -25.6,0 z"
         class="st12" /><rect
         x="295.70001"
         y="207.7"
         class="st16"
         width="26.1"
         height="1"
         id="rect428"
         style="fill:url(#SVGID_7_)" /><path
         style="fill:url(#SVGID_8_)"
         inkscape:connector-curvature="0"
         id="path445"
         d="m 203.5,209.7 c -1.1,0 -1.9,-0.9 -1.9,-1.9 l 0,0 c 3.6,0 54.9,0 57.9,0 l 0,0 c 0,1.1 -0.9,1.9 -1.9,1.9 l -54.1,0 z"
         class="st17" /><rect
         x="203.39999"
         y="207.7"
         class="st21"
         width="54.599998"
         height="1"
         id="rect490"
         style="fill:url(#SVGID_11_)" /><rect
         x="395.79999"
         y="205.7"
         class="st22"
         width="4.8000002"
         height="2"
         id="rect492"
         style="fill:#898689" /><rect
         x="44.700001"
         y="205.7"
         class="st22"
         width="4.8000002"
         height="2"
         id="rect494"
         style="fill:#898689" /><rect
         x="395.79999"
         y="7.6999998"
         class="st22"
         width="4.8000002"
         height="2"
         id="rect496"
         style="fill:#898689" /><rect
         x="312.70001"
         y="7.6999998"
         class="st22"
         width="4.8000002"
         height="2"
         id="rect498"
         style="fill:#898689" /><rect
         x="12.2"
         y="40.400002"
         class="st22"
         width="2"
         height="6.4000001"
         id="rect500"
         style="fill:#898689" /><rect
         x="12.2"
         y="169.8"
         class="st22"
         width="2"
         height="6.4000001"
         id="rect502"
         style="fill:#898689" /></g></g></svg>