<?xml version="1.0" encoding="UTF-8" standalone="no"?>
<svg
   xmlns:dc="http://purl.org/dc/elements/1.1/"
   xmlns:cc="http://creativecommons.org/ns#"
   xmlns:rdf="http://www.w3.org/1999/02/22-rdf-syntax-ns#"
   xmlns:svg="http://www.w3.org/2000/svg"
   xmlns="http://www.w3.org/2000/svg"
   xmlns:sodipodi="http://sodipodi.sourceforge.net/DTD/sodipodi-0.dtd"
   xmlns:inkscape="http://www.inkscape.org/namespaces/inkscape"
   width="265.78223mm"
   height="132.29222mm"
   preserveAspectRatio="xMidYMid"
   version="1.2"
   viewBox="0 0 26578.222 13229.222"
   xml:space="preserve"
   id="svg3817"
   sodipodi:docname="smartphone.svg"
   style="fill-rule:evenodd;stroke-width:28.22200012;stroke-linejoin:round"
   inkscape:version="0.92.2 5c3e80d, 2017-08-06"><metadata
     id="metadata3823"><rdf:RDF><cc:Work
         rdf:about=""><dc:format>image/svg+xml</dc:format><dc:type
           rdf:resource="http://purl.org/dc/dcmitype/StillImage" /><dc:title></dc:title></cc:Work></rdf:RDF></metadata><defs
     id="defs3821" /><sodipodi:namedview
     pagecolor="#ffffff"
     bordercolor="#666666"
     borderopacity="1"
     objecttolerance="10"
     gridtolerance="10"
     guidetolerance="10"
     inkscape:pageopacity="0"
     inkscape:pageshadow="2"
     inkscape:window-width="1440"
     inkscape:window-height="855"
     id="namedview3819"
     showgrid="false"
     fit-margin-top="0"
     fit-margin-left="0"
     fit-margin-right="0"
     fit-margin-bottom="0"
     inkscape:zoom="0.57192761"
     inkscape:cx="498.46721"
     inkscape:cy="254.72544"
     inkscape:window-x="0"
     inkscape:window-y="1"
     inkscape:window-maximized="1"
     inkscape:current-layer="svg3817" /><rect
     width="21000"
     height="29700"
     id="rect3789"
     x="2688.6113"
     y="-8360.3896"
     style="fill:none" /><g
     id="g3838"
     transform="rotate(-90,6614.611,6614.611)"><path
       style="fill:#808080"
       inkscape:connector-curvature="0"
       id="path3791"
       d="m 1879.111,214.111 c -833,0 -1665,832 -1665,1665 v 23020 c 0,832 832,1665 1665,1665 h 9670 c 833,0 1666,-833 1666,-1665 v -23020 c 0,-833 -833,-1665 -1666,-1665 z" /><path
       style="fill:none;stroke:#808080;stroke-linejoin:round"
       inkscape:connector-curvature="0"
       id="path3793"
       d="m 1879.111,214.111 c -833,0 -1665,832 -1665,1665 v 23020 c 0,832 832,1665 1665,1665 h 9670 c 833,0 1666,-833 1666,-1665 v -23020 c 0,-833 -833,-1665 -1666,-1665 z" /><path
       inkscape:connector-curvature="0"
       id="path3795"
       d="m 1679.111,14.111 c -833,0 -1665,832 -1665,1665 v 23020 c 0,832 832,1665 1665,1665 h 9670 c 833,0 1666,-833 1666,-1665 v -23020 c 0,-833 -833,-1665 -1666,-1665 z" /><path
       style="fill:none;stroke:#000000;stroke-linejoin:round"
       inkscape:connector-curvature="0"
       id="path3797"
       d="m 1679.111,14.111 c -833,0 -1665,832 -1665,1665 v 23020 c 0,832 832,1665 1665,1665 h 9670 c 833,0 1666,-833 1666,-1665 v -23020 c 0,-833 -833,-1665 -1666,-1665 z" /><rect
       style="fill:none"
       id="rect3799"
       height="26351"
       width="13001"
       y="14.111"
       x="14.111" /><path
       inkscape:connector-curvature="0"
       id="path3801"
       d="m 5441.111,24574.111 c -224,0 -447,223 -447,447 v 386 c 0,224 223,448 447,448 h 2146 c 224,0 448,-224 448,-448 v -386 c 0,-224 -224,-447 -448,-447 z" /><path
       style="fill:none;stroke:#ffffff;stroke-width:50;stroke-linejoin:round"
       inkscape:connector-curvature="0"
       id="path3803"
       d="m 5441.111,24574.111 c -224,0 -447,223 -447,447 v 386 c 0,224 223,448 447,448 h 2146 c 224,0 448,-224 448,-448 v -386 c 0,-224 -224,-447 -448,-447 z" /><rect
       style="fill:none"
       id="rect3805"
       height="1281"
       width="3041"
       y="24574.111"
       x="4994.1108" /><path
       inkscape:connector-curvature="0"
       id="path3807"
       d="m 5348.111,734.111 c -67,0 -134,67 -134,134 0,67 67,135 134,135 h 2332 c 67,0 135,-68 135,-135 0,-67 -68,-134 -135,-134 z" /><path
       style="fill:none;stroke:#ffffff;stroke-width:50;stroke-linejoin:round"
       inkscape:connector-curvature="0"
       id="path3809"
       d="m 5348.111,734.111 c -67,0 -134,67 -134,134 0,67 67,135 134,135 h 2332 c 67,0 135,-68 135,-135 0,-67 -68,-134 -135,-134 z" /><rect
       style="fill:none"
       id="rect3811"
       height="269"
       width="2601"
       y="734.11102"
       x="5214.1108" /><path
       style="fill:#ffffff"
       inkscape:connector-curvature="0"
       id="path3813"
       d="m 6564.111,24124.111 h -6095 v -21515 h 12190 v 21515 z" /><path
       style="fill:none;stroke:#ffffff;stroke-linejoin:round"
       inkscape:connector-curvature="0"
       id="path3815"
       d="m 6564.111,24124.111 h -6095 v -21515 h 12190 v 21515 z" /></g></svg>